<?xml version="1.0" encoding="iso-8859-1"?>
<!-- Generator: Adobe Illustrator 17.0.0, SVG Export Plug-In . SVG Version: 6.00 Build 0)  -->
<!DOCTYPE svg PUBLIC "-//W3C//DTD SVG 1.1//EN" "http://www.w3.org/Graphics/SVG/1.1/DTD/svg11.dtd">
<svg version="1.1" id="Layer_1" xmlns="http://www.w3.org/2000/svg" xmlns:xlink="http://www.w3.org/1999/xlink" x="0px" y="0px"
	 width="180.576px" height="290.533px" viewBox="0 0 180.576 290.533" style="enable-background:new 0 0 180.576 290.533;"
	 xml:space="preserve">
<g>
	<g>
		<path style="fill:#3E7032;" d="M131.937,9.036c-0.157,1.291,0.608,2.964,1.963,3.346c0.377,0.109,0.737,0.209,1.107,0.273
			c0.367,0.266,0.82,0.428,1.334,0.504c1.449,0.939,2.896,1.769,4.436,2.543c0.659,0.312,1.295,0.37,1.85,0.248
			c1.692,1.5,3.313,3.038,4.62,4.828c0.276,0.634,0.575,1.27,0.907,1.859c-0.585,0.779-0.78,1.822-0.177,2.959
			c2.452,4.838,3.784,9.775,4.433,14.961c0.005,0.063-0.013,0.123,0.002,0.184c-0.506,0.583-0.828,1.352-0.818,2.31
			c0.041,1.358,0.053,2.726,0.088,4.056c-0.248,0.345-0.417,0.714-0.519,1.125c-0.803,3.141-0.775,6.058-0.165,9.164
			c-0.524,2.163-0.874,4.316-1.025,6.535c-0.226,1.259-0.461,2.534-0.745,3.81c-0.417,1.124-0.765,2.246-1.059,3.404
			c-0.015,0.027-0.03,0.086-0.043,0.123c-0.374,0.295-0.684,0.651-0.94,1.153c-1.317,2.571-2.389,5.094-3.257,7.754
			c-1.343,3.209-2.683,6.401-4.167,9.54c-0.21,0.487-0.286,0.949-0.248,1.397c-0.35,1.232-0.552,2.487-0.621,3.759
			c-0.025,0.55,0.094,1.084,0.312,1.575c-4.349,1.595-7.087,4.471-7.716,9.056c-0.21-0.072-0.443-0.116-0.671-0.175
			c0.038,0.006,0,0,0.033-0.027c-0.483-0.099-0.935-0.227-1.398-0.373c-2.09-0.989-4.23-1.818-6.558-2.403
			c-0.471-0.23-0.942-0.448-1.406-0.685c-3.405-1.861-5.669,3.261-2.974,5.487c0.152,0.197,0.333,0.354,0.573,0.521
			c1.639,1.066,3.295,2.074,4.947,3.149c0.811,0.544,1.644,0.665,2.396,0.523c0.114,0.04,0.193,0.078,0.299,0.132
			c3.623,3.868,7.521,7.449,11.7,10.682c3.419,3.355,7.265,6.246,11.664,8.212c0.406,0.331,0.8,0.661,1.181,0.982
			c0.734,0.586,1.479,0.768,2.176,0.683c1.836,1.184,3.724-0.022,4.326-1.759c1.646-1.154,2.333-3.64,0.183-5.015
			c-2.095-1.351-4.132-2.776-6.206-4.127c-0.043-0.046-0.066-0.084-0.091-0.113c-0.301-0.287-0.596-0.543-0.879-0.81
			c-0.045-0.274-0.144-0.539-0.316-0.832c-0.651-1.167-1.355-2.241-2.087-3.274c0.197-0.287,0.355-0.643,0.418-0.974
			c0.994-4.316,0.218-8.202-1.887-11.982c1.026-2.888,1.089-5.811-0.01-8.803c1.507-2.089,2.487-4.376,3.105-7.2
			c0.121-0.577,0.073-1.107-0.089-1.559c0.21-0.394,0.444-0.793,0.664-1.175c0.469-0.902,0.357-1.808-0.066-2.584
			c0.585-1.18,1.112-2.342,1.624-3.52c0.555-0.32,0.985-0.81,1.21-1.552c0.624-1.985,1.138-3.991,1.604-5.993
			c0.36-0.968,0.672-1.936,1.013-2.938c-0.005-0.002-0.005-0.021-0.005-0.021c0.089-0.24,0.152-0.483,0.208-0.785
			c0.456-2.821,0.861-5.607,1.153-8.439c0.074-0.399,0.139-0.811,0.22-1.195c0.013-0.051,0.01-0.117,0.02-0.167
			c0.603-0.444,1.077-1.12,1.208-2.077c0.874-6.317,0.823-12.536,0.025-18.829c-0.094-0.803-0.469-1.4-0.955-1.843
			c-0.17-0.819-0.37-1.611-0.573-2.42c0.283-0.665,0.352-1.49,0.051-2.381c-0.565-1.828-1.1-3.626-1.669-5.375
			c0.064-0.514,0.013-1.051-0.169-1.634c-0.552-1.765-1.409-3.376-2.404-4.841c-0.144-0.329-0.311-0.635-0.479-0.938
			c-0.03-0.063-0.048-0.146-0.101-0.223c0,0-0.008,0.019-0.028,0.028c-0.114-0.255-0.248-0.479-0.374-0.737
			c-0.398-0.625-0.894-1.016-1.424-1.193c-0.641-0.692-1.294-1.355-1.968-2.018c-0.147-0.326-0.326-0.622-0.638-0.915
			c-0.195-0.2-0.363-0.366-0.578-0.57c0,0,0,0,0.003,0.008c-0.003-0.026-0.008-0.034-0.041-0.038
			c-2.135-2.049-4.339-3.475-7.072-4.509c-0.684-0.732-1.71-1.149-2.761-1.013c-0.98,0.147-1.973,0.294-2.948,0.436
			C133.267,6.492,132.145,7.63,131.937,9.036z"/>
		<path style="fill:#24482E;" d="M131.899,7.405c-1.203,0.838-1.218,2.937,0.043,3.754c3.698,2.405,7.952,3.309,11.908,5.115
			c0.947,0.446,1.781,0.224,2.351-0.315c2.386,3.149,4.278,6.801,5.293,8.827c1.966,4.047,3.268,8.467,4.065,12.986
			c-0.985,0.049-1.844,0.687-1.829,1.979c0.081,13.869,0.314,27.493-6.299,40.097c-2.789,5.263-4.871,10.824-5.604,16.759
			c-0.008,0.116,0.005,0.221-0.035,0.337c-0.228,0.312-0.38,0.715-0.387,1.218c0.007,0.222,0.03,0.414,0.03,0.647
			c-0.01-0.025-0.03-0.023-0.03-0.002c0.03,0.136,0.03,0.293,0.045,0.441c0.018,0.703,0.051,1.418,0.137,2.123
			c0.055,1.78-0.038,3.553-0.258,5.349c-0.056,0.505,0.01,0.927,0.167,1.29c-0.175,2.271-0.175,4.625,0.053,7.023
			c0.093,0.8,0.471,1.368,1.008,1.664c0.208,0.248,0.434,0.52,0.619,0.76c-0.91,0.049-1.804,0.287-2.572,0.816
			c-0.356,0.245-0.628,0.496-0.838,0.762c-0.2-0.045-0.413-0.108-0.595-0.164c-0.654-0.147-1.206,0.792-0.745,1.281
			c0.167,0.19,0.37,0.355,0.555,0.542c-0.259,1.199,0.033,2.592,0.59,3.812c0.882,2.053,3.453,1.604,4.296,0.104
			c0.094,0.072,0.246,0.139,0.365,0.199c0.056,0.123,0.137,0.203,0.266,0.286c-0.018,0.042-0.048,0.06-0.079,0.099
			c-1.963,1.082-2.528,4.582,0.183,5.869c2.769,1.291,5.714,2.365,8.802,2.502c1.727,0.076,3.326-0.922,3.574-2.74
			c0.068-0.441,0-0.906-0.152-1.355c0.477,0.1,0.919,0.18,1.393,0.254c0.846,0.123,1.12-0.928,0.58-1.441
			c-0.471-0.415-0.978-0.834-1.474-1.246c0.236-0.373,0.215-0.912-0.312-1.184c-0.996-0.469-1.963-0.995-2.963-1.484
			c-0.335-0.291-0.679-0.55-1.046-0.815c-0.145-0.102-0.296-0.159-0.438-0.148c0.182-0.324,0.167-0.785-0.147-1.058
			c-0.985-0.853-2.031-1.678-3.053-2.481c0.15-0.358,0.172-0.761,0.081-1.239c-0.106-0.418-0.165-0.865-0.274-1.297
			c0.482-0.458,0.757-1.11,0.667-1.968c-0.385-2.956-1.163-5.826-1.854-8.706c-0.16-1.469-0.324-2.953-0.469-4.438
			c0.005-0.012,0.005-0.038,0-0.046c0.154-0.294,0.304-0.599,0.501-0.876c0.651-1.049,0.433-2.105-0.172-2.85
			c1.887-6.84,4.929-13.393,7.748-20.085c5.046-12.032,6.444-23.851,5.203-36.81C159.811,31.159,148.429-4.308,131.899,7.405z
			 M153.32,127.013c0.089,0.044,0.155,0.072,0.236,0.117c-0.109-0.01-0.157-0.05-0.236-0.073
			C153.313,127.042,153.323,127.026,153.32,127.013z M154.552,127.322c-0.066-0.015-0.101-0.015-0.16-0.034
			c0.119-0.031,0.21-0.117,0.289-0.208c0.058,0.038,0.126,0.07,0.177,0.139C154.739,127.25,154.648,127.288,154.552,127.322z
			 M148.037,122.331c-0.086,0.021-0.167,0.049-0.266,0.09c-0.01-0.02-0.038-0.041-0.089-0.05c-0.01-0.016-0.012-0.029-0.012-0.029
			c0.081-0.047,0.131-0.099,0.215-0.141C147.941,122.257,147.986,122.277,148.037,122.331z"/>
		<path style="fill:#D27A47;" d="M83.184,103.251c-0.949,0.014-1.915,0.03-2.89,0.076c-2.17,0.099-3.614,1.102-4.438,2.51
			c-1.178-0.326-2.523-0.322-3.929,0.178c-1.31,0.451-2.533,1.044-3.686,1.631c-1.809,0.888-3.556,1.834-5.335,2.858
			c-1.675,0.952-2.72,2.266-3.24,3.662c-0.013,0.005-0.058,0.011-0.094,0.028c0.033-0.018,0-0.006,0.025-0.033
			c-0.114,0.056-0.243,0.088-0.355,0.159c-1.601,0.517-3.136,1.177-4.602,1.928c-2.389,1.034-4.757,2.144-7.049,3.432
			c-0.021,0.009-0.038,0.029-0.038,0.029s0,0,0.008,0.009c-0.492,0.284-0.963,0.553-1.444,0.847
			c-1.956,1.202-2.73,2.807-2.695,4.435c-6.971,7.479-12.128,17.18-16.814,25.777c-1.378,2.475-2.748,4.957-4.121,7.449
			c-3.584-1.588-8.291-0.314-8.638,4.695c-0.24,3.423,0.294,6.645,1.643,9.266c-3.465,7.995-5.838,16.207-5.529,24.776
			c-1.654,1.188-2.705,3.169-2.307,5.742c0.35,2.29,0.777,4.517,1.271,6.724c-0.189,1.129-0.106,2.377,0.428,3.707
			c0.648,1.67,1.345,3.297,1.993,4.957c1.588,5.03,3.157,10.069,4.418,15.188c-0.317,0.192-0.606,0.445-0.846,0.78
			c-3.223,5.013-3.785,10.317-2.513,16.109c0.063,0.292,0.177,0.561,0.296,0.826c0.025,0.234,0.038,0.479,0.043,0.707
			c-0.677,3.471-0.2,7.395,1.17,10.694c-0.169,0.397-0.301,0.816-0.411,1.201c-1.572,3.036-1.34,6.458,0.452,9.579
			c-0.026,0.159-0.051,0.31-0.059,0.469c-1.053,0.512-1.958,1.267-2.403,2.421c-0.362,0.821-0.449,1.769-0.292,2.651
			c-1.466,1.835-0.835,4.988,1.893,5.236c1.104,0.096,2.082,0.148,3.032,0.152c4.215,1.482,8.478,1.158,12.663-1.074
			c0.208-0.116,0.375-0.266,0.557-0.402c1.991-0.431,3.858-1.002,5.543-1.747c1.21-0.537,1.833-1.667,1.874-2.832
			c0.451-0.028,0.897-0.021,1.362-0.087c0.732-0.061,1.323-0.352,1.712-0.725c1.213-0.172,2.378-0.492,3.506-1.005
			c0.846,0.099,1.692,0.144,2.528,0.208c0.502,0.202,1.072,0.305,1.688,0.205c0.431-0.063,0.866-0.149,1.291-0.219
			c2.392-0.068,4.727-0.425,7.101-1.103c-0.191,2.131,1.651,4.326,4.301,3.255c2.85-1.098,5.674-2.26,8.471-3.523
			c7.338,0.48,15.342-3.846,21.47-7.083c2.525-1.329,2.204-5.273-0.2-6.005c1.98-0.885,3.946-1.804,5.872-2.834
			c3.896-1.191,7.636-2.577,11.251-4.564c0.136-0.083,0.26-0.159,0.39-0.253c0.864-0.458,1.715-0.938,2.571-1.437
			c0.175-0.094,0.317-0.238,0.479-0.359c2.502-0.714,5.025-1.343,7.518-2.059c3.118-0.875,4.343-4.568,3.576-7.57
			c0.339-0.318,0.679-0.625,1.031-0.98c3.212-2.069,6.414-4.208,9.621-6.281c1.451-0.938,2.188-2.227,2.424-3.607
			c1.259-0.793,2.523-1.575,3.785-2.388c1.542-0.996,2.3-2.369,2.467-3.839c5.671-3.241,11.227-6.671,16.221-10.96
			c0.036,0,0.086-0.023,0.142-0.035c7.49-2.615,12.27-9.399,14.965-16.605c0.359-0.966,0.454-1.932,0.344-2.858
			c1.472-3.024,2.355-6.284,3.07-9.694c0.168-0.256,0.332-0.517,0.491-0.83c6.66-14.286,0.314-26.171-7.888-37.445
			c0.152-2.025-0.545-4.109-2.374-5.457c-3.268-2.449-6.542-4.644-10.448-5.945c-0.907-0.275-1.842-0.333-2.746-0.232
			c-3.432-1.441-6.91-2.778-10.352-4.129c-7.044-6.852-14.715-12.908-22.293-19.163c-1.241-1.038-2.639-1.416-3.984-1.324
			c-6.173-4.575-12.372-8.454-20.464-8.034c-0.8,0.046-1.487,0.238-2.097,0.516c-1.479-0.43-2.936-0.868-4.397-1.289
			C86.796,101.639,84.722,102.111,83.184,103.251z M44.943,145.276c-0.345,0.243-0.671,0.486-1.013,0.728
			c0.159-0.236,0.293-0.459,0.435-0.707C44.546,145.297,44.748,145.311,44.943,145.276z"/>
		<g>
			<path style="fill:#CA5C1E;" d="M75.36,101.093c-4.344-0.185-8.458,0.856-11.464,4.494c-1.38,1.688-1.682,3.461-1.276,5.043
				c-3.927,0.675-7.842,1.518-11.687,2.721c-3.898,1.197-1.363,7.05,2.515,5.828c8.493-2.652,17.404-3.323,26.206-4.442
				c0.069,0.022,0.104,0.013,0.172,0.04c4.149,1.214,8.162,2.931,12.139,4.661c7.746,3.421,15.5,7.13,22.787,11.437
				c20.687,12.169,38.357,32.714,28.757,57.938c-2.503,6.566-6.642,10.09-12.285,13.947c-5.152,3.543-9.575,7.972-13.967,12.395
				c-9.6,9.648-18.66,18.589-31.184,24.371c-23.187,10.688-49.146,12.058-70.833,26.507c-2.66,1.787-3.052,4.391-2.155,6.63
				c-4.474,3.41-2.161,12.37,4.724,11.385c6.443-0.947,12.748-2.174,18.941-3.894c0.829,0,1.728-0.198,2.655-0.663
				c0.299-0.135,0.598-0.246,0.876-0.367c1.682-0.537,3.331-1.09,4.964-1.685c10.689-2.646,22.174,0.159,33.143-0.646
				c4.184-0.276,5.742-3.7,5.205-6.9c3.602-1.55,7.105-3.457,10.371-5.772c1.114-0.801,1.834-1.74,2.198-2.756
				c4.669-2.287,9.463-4.226,13.855-7.026c5.699-3.605,7.789-9.491,12.148-14.356c9.656-10.726,24.025-16.326,33.423-27.316
				c0.033-0.052,0.069-0.102,0.139-0.145c1.077-0.101,2.199-0.455,3.309-1.17c11.436-7.279,19.319-22.331,21.115-35.503
				c1.105-8.354-2.254-15.993-7.485-22.398c-0.013-0.064-0.008-0.159-0.018-0.222c-2.437-11.48-12.121-15.67-22.007-19.778
				c-0.056-0.023-0.124-0.038-0.188-0.07c-2.751-1.814-5.497-3.625-8.262-5.413c-0.467-0.332-0.938-0.565-1.399-0.745
				c-9.299-6.206-19.466-11.098-29.243-16.521c-6.741-3.77-12.673-8.921-20.272-11.06C85.552,98.017,80.342,98.839,75.36,101.093z
				 M83.567,253.718c-6.034,3.641-12.546,5.039-19.249,5.874C70.8,257.753,77.267,255.946,83.567,253.718z"/>
			<path style="fill:#CA5C1E;" d="M17.45,203.9c-0.172-0.737-0.218-1.504-0.218-2.259c1.639-6.381,4.567-12.396,4.22-19.122
				c-0.474-9.442,0.317-18.27,5.672-26.452c1.563-2.421-0.793-6.5-3.823-4.846c-7.832,4.359-9.499,11.308-12.351,19.264
				c-0.953,2.675,1.608,4.677,3.708,4.297c0.007,0.574-0.003,1.145,0.033,1.711c0.078,1.652,0.169,3.232,0.215,4.738
				c-1.328,0.683-2.171,2.129-1.262,3.854c0.056,0.069,0.061,0.162,0.104,0.246c-1.097,0.777-1.77,2.136-1.167,3.756
				c0.266,0.596,0.339,1.328,0.354,2.137c-1.811-0.029-3.622,1.232-3.18,3.494c0.056,0.246,0.084,0.53,0.125,0.781
				c-1.087,0.357-1.965,1.189-2.118,2.51c-0.342,2.787-0.286,5.558,0.418,8.18c0.139,1.459,0.309,2.918,0.57,4.392
				c0.026,0.014,0.026,0.014,0.008,0.03c0.345,2.438,0.93,4.855,1.791,7.314c0.243,0.642,0.656,1.102,1.137,1.404
				c-0.185,0.291-0.378,0.564-0.618,0.857c-2.68,3.106,2.423,6.914,5.081,3.815C21.518,217.714,19.081,211.163,17.45,203.9z"/>
		</g>
		<g>
			<g>
				<path style="fill:#983919;" d="M75.248,99.5c-5.476-0.014-9.955,1.525-12.936,6.376c-1.555,2.559-0.768,3.266-4.61,4.047
					c-1.793,0.355-7.141,0.961-8.407,2.572c-1.662,2.151-0.811,4.406,1.37,5.815c0.782,0.517,1.994,0.405,2.814,0.175
					c6.204-1.814,12.478-2.741,18.871-3.543c5.246-0.635,8.329-0.609,13.263,1.271c4.21,1.581,8.265,3.53,12.351,5.394
					c9.214,4.262,18.222,9.082,26.317,15.268c15.997,12.23,25.634,30.671,18.603,50.631c-2.999,8.564-11.105,12.574-17.622,18.058
					c-7.265,6.092-13.506,13.399-20.601,19.717c-14.526,12.865-32.356,18.157-50.645,23.299c-8.544,2.401-17.022,4.981-25.239,8.425
					c-5.142,2.16-15.028,5.569-16.678,11.561c-1.514,5.314-4.042,13.577,4.081,14.892c3.316,0.524,7.835-1.09,11.079-1.729
					c3.476-0.669,7.513-1.215,10.819-2.438c10.332-3.759,19.692-3.711,30.579-3.126c4.868,0.246,11.583,1.518,14.628-3.146
					c1.228-1.829-0.185-3.594,2.47-4.787c3.092-1.397,7.758-3.519,9.813-6.271c4.048-5.358,12.959-5.819,17.721-10.891
					c2.559-2.738,4.57-5.858,6.695-8.919c2.981-4.252,7.011-7.619,11.077-10.78c6.213-4.835,13.022-8.876,19.091-13.932
					c2.161-1.816,4.418-5.382,7.118-5.943c2.915-0.613,5.717-3.697,7.767-5.584c9.757-9.06,16.682-24.56,15.383-37.938
					c-0.691-7.041-5.801-11.71-7.967-17.922c-2.186-6.347-6.391-10.395-12.11-13.712c-2.554-1.482-5.312-2.612-8.03-3.784
					c-3.663-1.562-6.578-4.37-10.107-6.183c-8.395-4.305-16.376-9.586-24.723-14.051c-12.888-6.878-25.036-18.732-40.584-13.588
					c-0.628,0.273-1.256,0.537-1.89,0.788c-0.585,0.243-0.18,1.111,0.365,0.881c14.137-5.838,24.104,2.813,35.751,9.55
					c9.623,5.546,19.459,11.509,29.317,16.583c4.582,2.341,8.395,5.594,13.139,7.597c5.169,2.217,10.063,4.793,13.952,8.931
					c3.191,3.368,3.26,7.829,5.965,11.32c5.504,7.097,7.034,15.252,5.37,23.89c-2.297,11.856-9.157,23.264-18.739,30.528
					c7.361-5.58-4.266,1.482-4.965,2.283c-1.737,2.003-3.635,3.832-5.628,5.598c-4.397,3.918-9.454,7.125-14.292,10.494
					c-8.513,5.895-14.228,12.256-20.271,20.52c-4.146,5.693-10.988,8.252-17.161,11.125c0.195-0.076-1.875,0.572-2.244,1.215
					c-2.412,4.292-8.048,6.359-12.343,8.274c-0.205,0.101-0.289,0.304-0.269,0.499c0.757,10.07-18.306,6.137-23.747,5.896
					c-4.554-0.173-9.955-0.414-14.306,1.152c-5.073,1.82-10.149,3.234-15.413,4.447c-3.151,0.709-6.328,1.229-9.491,1.771
					c-6.141,0.997-12.64-4.611-6.791-10.163c0.114-0.112,0.231-0.284,0.195-0.445c-2.082-7.552,12.392-12.179,17.794-14.438
					c6.816-2.885,13.972-4.938,21.052-6.972c13.5-3.834,27.243-7.286,39.535-14.199c11.138-6.249,19.94-15.893,28.93-24.765
					c8.617-8.563,19.585-13.302,23.798-25.323c7.981-22.585-8.483-42.569-26.242-54.306c-11.049-7.33-23.846-13.253-36.356-17.623
					c-5.134-1.78-11.657,0.356-16.888,1.126c-3.22,0.454-6.484,1.062-9.605,1.955c-6.092-3.385-6.079-5.218,0.059-5.524
					c2.31-0.605,4.696-1.004,7.044-1.416c0.274-0.046,0.438-0.269,0.405-0.549c-0.673-6.933,6.991-9.011,12.202-8.985
					C75.742,100.447,75.866,99.495,75.248,99.5z"/>
				<path style="fill:#983919;" d="M83.207,252.144c-5.945,3.403-12.364,4.947-19.114,5.847c0.101,0.309,0.182,0.593,0.258,0.908
					c6.475-1.825,12.913-3.685,19.238-5.888C84.177,252.807,83.799,251.936,83.207,252.144c-6.327,2.193-12.756,4.048-19.233,5.879
					c-0.519,0.16-0.256,0.987,0.276,0.914c6.829-0.922,13.321-2.446,19.339-5.926C84.129,252.714,83.754,251.828,83.207,252.144z"/>
			</g>
			<g>
				<path style="fill:#983919;" d="M17.769,202.688c-0.548-5.57,2.968-11.733,3.83-17.276c0.93-5.803-0.116-11.798,0.821-17.671
					c0.499-3.174,1.631-6.172,2.943-9.079c1.175-2.514,2.485-3.428,2.528-5.986c0.025-2.014-1.697-3.154-3.435-3.438
					c-2.447-0.435-5.573,3.306-7.067,4.887c-2.983,3.173-4.451,7.7-5.867,11.702c-1.043,2.936-2.309,5.094,0.107,7.543
					c0.752,0.761,2.406,0.431,2.437,2.055c0.061,2.584-0.494,4.412-1.381,6.74c-0.215,0.627,0.119,1.395,0.376,1.974
					c-0.139-0.27-1.34,2.188-1.302,2.36c0.567,3.922-2.46,2.801-2.579,5.521c-0.091,2.277,0.18,1.057-1.244,2.938
					c-1.274,1.707-0.98,4.032-0.982,5.978c0,4.388,1.043,10.006,2.406,14.205c0.089,0.216,1.267,3.436,1.104,3.707
					c-0.436,0.805-1.132,1.725-0.712,2.728c0.993,2.315,2.729,3.223,5.195,2.609c2.019-0.499,3.797-4.342,4.202-6.024
					C20.439,212.857,18.985,207.89,17.769,202.688c-0.139-0.581-1.087-0.475-0.95,0.145c0.563,2.343,1.12,4.669,1.578,7.038
					c0.299,1.618,0.436,3.253,0.375,4.897c-0.06,0.541-0.111,1.098-0.17,1.635c-0.182,4.116-2.421,4.805-6.689,2.074
					c0.124-0.172,0.126-0.398-0.003-0.584c-2.946-3.696-6.446-20.259-1.917-23.146c0.149-0.09,0.223-0.295,0.187-0.457
					c0.876-1.226,1.758-2.474,2.645-3.721c0.247-0.048,0.463-0.266,0.4-0.529c-0.58-1.917-0.345-3.781,0.765-5.565
					c0.097-0.108,0.102-0.312,0.028-0.479c-3.678-8.79,0.955-2.044,1.208-3.843c0.258-2.074-0.203-4.46-0.249-6.565
					c-0.005-0.204-0.223-0.402-0.402-0.402c-7.525-0.316,2.348-16.915,3.559-18.477c1.122-1.262,2.355-2.357,3.731-3.274
					c1.198,1.664,2.424,3.306,3.62,4.975c-0.339,0.602-0.669,1.225-0.999,1.875c-1.223,2.337-1.95,4.914-2.642,7.46
					c-1.697,6.47-0.638,12.993-1.173,19.545c-0.484,6.023-4.463,11.509-3.853,17.544C16.865,203.442,17.837,203.304,17.769,202.688z
					"/>
			</g>
		</g>
		<g>
			<path style="fill:#001E0E;" d="M131.509,7.1c-3.995,5.869,8.767,8.204,12.153,9.612c0.449,0.2,1.234,0.456,1.717,0.221
				c1.695-0.896,4.372,5.522,5.094,6.904c2.158,4.132,5.01,9.842,3.363,14.29c-1.603,4.291-0.524,10.039-0.683,14.612
				c-0.193,6.399-1.064,12.692-2.832,18.835c-1.639,5.66-4.861,10.718-6.905,16.232c-0.558,1.534-2.928,10.547-2.062,10.517
				c-0.273,0-0.425,0.297-0.431,0.529c0.489,5.575-1.229,11.997,0.525,17.395c0.57,1.741-1.898,1.885-3.266,2.594
				c-0.203,0.108-0.284,0.261-0.276,0.503c0.129,1.744,0.519,5.919,2.401,6.708c0.778,0.294,2.257,0.54,2.951-0.166
				c-0.448,0.455-1.102,1.689-0.917,2.939c0.479,3.623,8.182,5.701,11.14,5.215c3.273-0.553,3.23-2.904,5.737-4.361
				c0.165-0.105,0.33-0.299,0.289-0.5c-0.352-1.405-1.005-1.582-1.619-2.981c-0.897-2.024-4.605-1.474-5.016-3.905
				c-0.289-1.702-4.501-2.914-2.768-5.5c1.423-2.191-1.115-8.002-1.651-10.2c-0.489-2.018-0.145-8.006,0.526-10.241
				c1.776-6.107,4.57-11.958,7.063-17.808c3.787-8.986,5.803-18.83,5.641-28.568c-0.177-12.621-9.554-56.387-30.087-42.953
				c-0.507,0.326,0.073,1.08,0.598,0.739c18.721-12.25,28.051,28.339,28.524,40.257c0.327,8.896-1.186,17.73-4.025,26.154
				c-2.741,8.172-6.845,15.771-9.271,24.081c-1.201,4.056,0.218,8.888,1.145,12.797c0.557,2.52,0.486,6.041,0.35,8.755
				c-0.081,1.396,2.916,2.008,3.176,3.672c0.036,0.137,0.139,0.314,0.301,0.359c0.755,0.271,4.569,2.557,4.448,3.117
				c-0.028,0.182,0.083,0.356,0.203,0.465c-0.051,0.52-0.117,1.059-0.167,1.592c-0.292-0.067-0.555,0.232-0.527,0.517
				c0.605,5.481-16.525,3.649-11.492-4.134c0.114-0.176,0.17-0.435-0.01-0.599c-0.281-0.299-0.337-0.359-0.704-0.559
				c-0.177-0.11-0.41-0.166-0.567,0.012c-6.651,6.63-3.118-2.802-4.301-3.95c-1.048-0.991,7.293-2.924,3.969-2.363
				c0.35-0.061,0.535-0.483,0.301-0.785c-2.175-2.651-1.142-6.117-1.565-9.217c-0.113-0.823,0.618-8.684-0.486-8.658
				c0.281,0,0.42-0.299,0.423-0.544c-0.395-10.013,7.187-19.536,9.869-28.837c1.188-4.137,1.697-8.478,2.077-12.743
				c0.266-3.007-1.241-17.665,1.882-18.944c0.188-0.074,0.339-0.305,0.289-0.504c-1.581-8.068-4.684-15.341-9.453-22.041
				c-0.112-0.172-0.393-0.232-0.544-0.141c-2.206,1.106-16.098-4.41-13.752-7.838C132.606,7.165,131.856,6.606,131.509,7.1z"/>
			<path style="fill:#001E0E;" d="M153.146,127.451c0.078,0.036,0.144,0.078,0.218,0.13c0.119-0.322,0.261-0.6,0.345-0.915
				c-0.059-0.007-0.124-0.018-0.228-0.04c0.114,0.174,0.2,0.342,0.306,0.494c0.015-0.016,0.01-0.04,0.01-0.04
				c0.025-0.618-0.912-0.743-0.958-0.126c-0.005,0.023,0.008,0.044,0.008,0.044c-0.005,0.198,0.07,0.448,0.296,0.509
				c0.089,0.002,0.147,0.044,0.221,0.074c0.583,0.152,0.937-0.627,0.345-0.915c-0.051-0.021-0.124-0.065-0.221-0.094
				C152.925,126.317,152.586,127.196,153.146,127.451z"/>
			<path style="fill:#001E0E;" d="M154.602,126.849c-0.04-0.014-0.108-0.019-0.149-0.021c0.033,0.289,0.076,0.596,0.134,0.91
				c0.162-0.103,0.264-0.15,0.395-0.285c-0.195-0.003-0.37,0.006-0.58,0.003c0.068,0.046,0.117,0.084,0.16,0.14
				c0.04-0.267,0.068-0.551,0.101-0.834c-0.109,0.049-0.212,0.081-0.309,0.116c-0.577,0.214-0.218,1.064,0.38,0.866
				c0.093-0.022,0.217-0.072,0.321-0.102c0.339-0.103,0.35-0.615,0.076-0.808c-0.046-0.061-0.094-0.099-0.157-0.141
				c-0.165-0.126-0.451-0.12-0.585,0.015c-0.061,0.043-0.124,0.102-0.187,0.152c-0.405,0.218-0.365,0.83,0.124,0.9
				c0.048,0.008,0.098,0.021,0.154,0.021C155.084,127.895,155.21,126.958,154.602,126.849z"/>
			<path style="fill:#001E0E;" d="M147.968,121.856c-0.129,0.036-0.235,0.076-0.373,0.114c0.125,0.01,0.253,0.002,0.373-0.016
				c0.005,0.052,0.043,0.063,0.084,0.094c-0.031,0.206-0.074,0.433-0.092,0.661c0.076-0.044,0.137-0.084,0.213-0.145
				c-0.178,0-0.386,0-0.578,0.025c0.056,0.026,0.112,0.084,0.15,0.131c0.489,0.395,1.051-0.377,0.595-0.765
				c-0.058-0.056-0.106-0.085-0.177-0.132c-0.165-0.154-0.411-0.119-0.575-0.004c-0.059,0.056-0.142,0.098-0.2,0.134
				c-0.243,0.128-0.243,0.521-0.117,0.683c0.284,0.29,0.494,0.248,0.846,0.168C148.691,122.686,148.594,121.729,147.968,121.856z"/>
		</g>
		<g>
			<path style="fill:#983919;" d="M18.881,261.909c11.089-5.226,22.288-8.781,29.606-19.269c0.336-0.486-0.418-1.064-0.765-0.567
				c-7.222,10.337-18.321,13.815-29.201,18.944C17.962,261.288,18.339,262.154,18.881,261.909L18.881,261.909z"/>
		</g>
		<g>
			<path style="fill:#983919;" d="M27.526,259.405c15.466-7.154,32.742-7.691,49.125-11.587c0.598-0.144,0.481-1.115-0.117-0.947
				c-16.485,3.913-33.841,4.456-49.381,11.657C26.571,258.785,26.956,259.655,27.526,259.405L27.526,259.405z"/>
		</g>
		<g>
			<path style="fill:#983919;" d="M62.765,246.337c16.774-1.963,32.058-16.881,42.423-29.201c0.411-0.479-0.35-1.033-0.759-0.555
				c-10.155,12.058-25.379,26.91-41.787,28.822C62.011,245.483,62.157,246.405,62.765,246.337L62.765,246.337z"/>
		</g>
		<g>
			<path style="fill:#983919;" d="M111.126,218.613c-7.792,8.194-15.411,16.583-22.019,25.78c-0.373,0.491,0.393,1.063,0.742,0.555
				c6.624-9.164,14.261-17.6,22.053-25.756C112.326,218.75,111.561,218.181,111.126,218.613L111.126,218.613z"/>
		</g>
		<g>
			<path style="fill:#983919;" d="M113.428,218.628c9.998-6.268,22.276-8.002,29.646-17.931c0.377-0.484-0.379-1.065-0.744-0.57
				c-7.311,9.805-19.629,11.565-29.497,17.754C112.311,218.207,112.916,218.93,113.428,218.628L113.428,218.628z"/>
		</g>
		<g>
			<path style="fill:#983919;" d="M124.842,205.478c7.239-5.093,12.753-11.355,14.815-20.091c2.171-9.355-1.013-19.422-4.252-28.131
				c-0.231-0.571-1.094-0.192-0.879,0.389c2.981,7.971,5.34,16.217,4.613,24.815c-0.808,9.646-7.3,16.919-14.892,22.27
				C123.745,205.082,124.333,205.829,124.842,205.478L124.842,205.478z"/>
		</g>
		<g>
			<path style="fill:#983919;" d="M146.766,177.304c0.582-17.832-10.307-33.223-21.503-46.115c-0.388-0.463-1.153,0.128-0.742,0.593
				c10.983,12.675,21.875,27.845,21.29,45.398C145.797,177.768,146.735,177.918,146.766,177.304L146.766,177.304z"/>
		</g>
		<g>
			<path style="fill:#983919;" d="M132.127,143.486c-5.238-7.934-15.239-10.968-24.041-13.028
				c-10.155-2.37-20.816-3.121-31.242-2.96c-0.6,0.011-0.456,0.946,0.137,0.929c9.352-0.127,18.691,0.646,27.871,2.349
				c9.43,1.715,20.948,4.829,26.516,13.306C131.712,144.588,132.462,143.997,132.127,143.486L132.127,143.486z"/>
		</g>
		<g>
			<path style="fill:#983919;" d="M122.084,134.032c-13.491-6.375-21.597-19.358-30.652-30.596
				c-0.388-0.484-1.143,0.126-0.773,0.607c9.207,11.363,17.402,24.418,31.029,30.874
				C122.266,135.176,122.626,134.299,122.084,134.032L122.084,134.032z"/>
		</g>
		<g>
			<path style="fill:#983919;" d="M90.723,117.913c-11.609-6.604-23.544,1.957-34.055,6.882c-0.554,0.259-0.172,1.14,0.383,0.871
				c10.256-4.803,21.944-13.341,33.309-6.867C90.902,119.118,91.252,118.22,90.723,117.913L90.723,117.913z"/>
		</g>
		<g>
			<path style="fill:#983919;" d="M131.412,143.755c13.469,12.15,25.771,25.875,29.184,44.299c0.101,0.606,1.046,0.477,0.921-0.119
				c-3.434-18.693-15.857-32.625-29.534-44.961C131.526,142.569,130.962,143.347,131.412,143.755L131.412,143.755z"/>
		</g>
		<g>
			<path style="fill:#983919;" d="M124.293,178.75c4.66-19.473-5.669-41.038-18.104-55.569c-0.408-0.453-1.165,0.116-0.75,0.601
				c12.277,14.322,22.524,35.616,17.898,54.851C123.223,179.214,124.173,179.327,124.293,178.75L124.293,178.75z"/>
		</g>
		<g>
			<path style="fill:#983919;" d="M18.367,222.305c0.962-12.222,1.925-25.621,11.654-34.295c0.434-0.402-0.149-1.165-0.603-0.746
				c-9.937,8.86-11.011,22.412-11.986,34.895C17.397,222.759,18.316,222.901,18.367,222.305L18.367,222.305z"/>
		</g>
		<g>
			<path style="fill:#983919;" d="M18.159,205.524c-2.27-10.089-4.098-20.335-3.035-30.692c0.041-0.597-0.894-0.735-0.949-0.117
				c-1.077,10.437,0.752,20.792,3.057,30.927C17.356,206.223,18.301,206.12,18.159,205.524L18.159,205.524z"/>
		</g>
		<g>
			<path style="fill:#983919;" d="M21.478,183.915c4.645-11.084,10.502-21.576,14.625-32.868c0.223-0.563-0.674-0.933-0.874-0.36
				c-4.146,11.297-10.005,21.792-14.628,32.846C20.345,184.112,21.224,184.47,21.478,183.915L21.478,183.915z"/>
		</g>
		<g>
			<path style="fill:#983919;" d="M20.702,174.786c-0.134-4.442,0.37-8.832,0.255-13.293c-0.025-0.61-0.96-0.461-0.955,0.124
				c0.142,4.442-0.375,8.878-0.263,13.291C19.76,175.535,20.697,175.403,20.702,174.786L20.702,174.786z"/>
		</g>
		<g>
			<path style="fill:#983919;" d="M143.832,206.147c6.834-9.575,3.247-25.223,0.279-35.576c-0.167-0.572-1.037-0.192-0.869,0.381
				c2.875,10.086,6.421,25.383-0.146,34.633C142.728,206.082,143.503,206.649,143.832,206.147L143.832,206.147z"/>
		</g>
		<g>
			<path style="fill:#983919;" d="M50.516,242.442c-0.431-3.041-5.162-2.367-4.724,0.673
				C46.228,246.159,50.951,245.485,50.516,242.442L50.516,242.442z"/>
		</g>
		<g>
			<path style="fill:#983919;" d="M103.828,218.962c0.289-0.042,0.575-0.073,0.841-0.111c1.294-0.185,2.196-1.389,2.039-2.687
				c-0.21-1.275-1.423-2.207-2.705-2.032c-0.256,0.027-0.56,0.084-0.841,0.113c-1.287,0.196-2.204,1.413-2.024,2.695
				C101.316,218.235,102.549,219.155,103.828,218.962L103.828,218.962z"/>
		</g>
		<g>
			<path style="fill:#983919;" d="M126.109,179.639c0.089-0.16,0.205-0.321,0.347-0.471c0.775-1.042,0.562-2.568-0.474-3.352
				c-1.026-0.773-2.556-0.568-3.354,0.483c-0.119,0.167-0.23,0.313-0.364,0.484c-0.76,1.02-0.548,2.542,0.489,3.331
				C123.791,180.889,125.305,180.68,126.109,179.639L126.109,179.639z"/>
		</g>
		<g>
			<path style="fill:#983919;" d="M81.256,126.502c-0.425-3.045-5.137-2.366-4.716,0.654
				C76.976,130.219,81.697,129.542,81.256,126.502L81.256,126.502z"/>
		</g>
		<g>
			<path style="fill:#983919;" d="M61.377,125.013c-0.431-3.04-5.14-2.366-4.709,0.666
				C57.094,128.726,61.816,128.057,61.377,125.013L61.377,125.013z"/>
		</g>
		<g>
			<path style="fill:#983919;" d="M37.602,153.599c-0.425-3.049-5.137-2.378-4.732,0.66
				C33.312,157.308,38.026,156.63,37.602,153.599L37.602,153.599z"/>
		</g>
		<g>
			<path style="fill:#983919;" d="M30.831,192.601c0.119-0.157,0.226-0.327,0.36-0.482c0.768-1.035,0.58-2.542-0.469-3.333
				c-1.031-0.777-2.559-0.569-3.341,0.461c-0.124,0.16-0.235,0.316-0.36,0.482c-0.785,1.045-0.56,2.553,0.467,3.34
				C28.519,193.842,30.041,193.626,30.831,192.601L30.831,192.601z"/>
		</g>
		<g>
			<path style="fill:#983919;" d="M161.923,191.291c0.557-0.849,0.866-1.669,0.783-2.677c-0.124-1.271-1.447-2.201-2.693-2.02
				c-1.345,0.19-2.156,1.381-2.026,2.678c0.02,0.195-0.013,0.045-0.013-0.477c0.005,0.332,0.105-0.296,0.157-0.393
				c-0.704,1.092-0.603,2.523,0.484,3.35C159.582,192.487,161.224,192.365,161.923,191.291L161.923,191.291z"/>
		</g>
		<g>
			<path style="fill:#983919;" d="M143.867,208.638c0.132-0.015,0.279-0.021,0.421-0.051c1.267-0.188,2.209-1.411,2.026-2.7
				c-0.194-1.279-1.408-2.209-2.682-2.036c-0.149,0.034-0.276,0.055-0.436,0.061c-1.292,0.193-2.209,1.424-2.027,2.691
				C141.345,207.895,142.57,208.822,143.867,208.638L143.867,208.638z"/>
		</g>
		<path d="M38.352,282.921c5.801-2.444,12.199-2.649,18.38-2.932c11.854-0.557,23.01-1.701,32.366-9.587
			c1.92-1.601,3.661-3.374,5.517-5.068c3.501-3.187,7.954-4.216,12.397-5.456c5.592-1.542,9.559-4.14,13.685-8.143
			c8.172-7.878,13.853-17.579,23.377-24.109c8.627-5.923,17.916-10.19,24.434-18.699c6.634-8.638,7.468-20.622,10.31-30.767
			c3.298-11.764-1.026-21.631-4.515-32.807c-0.124-0.41-0.329-0.744-0.552-1.008c-2.3-5.221-6.434-8.479-11.331-10.926
			c4.355-5.342-2.271-10.668-8.354-15.079c0.91-5.336-1.086-10.346-2.084-15.575c-1.388-7.213,2.034-15.294,4.516-21.895
			c2.059-5.434,4.727-10.619,6.196-16.231c1.648-6.141,1.582-11.995,1.188-18.254c-0.747-11.605-0.727-25.027-8.162-34.679
			c-4.501-5.85-15.355-12.146-23.233-9.534c-0.977-0.152-2.039,0.15-2.859,1.104c-3.237,3.769-4.316,8.336-0.836,12.328
			c1.499,1.759,4.035,1.917,6.183,1.958c4.162,0.099,7.097,2.812,9.474,5.988c3.797,5.053,4.564,12.339,4.083,18.424
			c-0.737,8.887-2.186,18.411-5.36,26.743c-2.219,5.841-4.691,11.341-6.46,17.354c-1.598,5.327-3.73,14.078-9.883,15.775
			c-3.734,1.054-10.279-4.561-14.175-5.223c-3.704-0.61-6.475,0.411-8.379,3.231c-23.187-6.049-49.85,5.073-64.232,23.504
			c-5.056,6.502-8.268,14.289-12.663,21.239c-3.999,6.348-11.705,9.784-15.036,16.554c-2.844,5.707-3.29,11.984-3.145,18.268
			c0.073,3.458,0.258,6.659-0.988,9.914c-1.5,3.861-4.187,7.101-5.55,11.037c-1.986,5.803,1.464,11.682,4.341,16.5
			c2.462,4.113,3.863,7.732,3.298,12.662c-0.461,4.089-2.254,7.926-2.69,12.055c-0.413,3.906,0.456,8.118,0.907,11.977
			c0.506,3.908,2.183,9.245,1.106,13.15c-0.891,3.271-3.234,5.943-4.03,9.395c-0.765,3.307-0.765,6.463,0.486,9.613
			c2.966,7.488,14.423,4.477,19.804,2.584C30.155,286.804,34.193,284.661,38.352,282.921z M134.721,104.303
			c3.559-3.435,5.423-8.368,6.953-12.933c2.089-6.131,3.954-12.068,6.475-18.07c3.273-7.72,4.483-14.873,5.365-23.144
			c0.719-6.669,2.006-12.155,0.745-18.916c-1.074-5.687-3.713-11.054-7.847-15.082c-1.913-1.881-4.139-3.15-6.54-4.225
			c-2.11-0.942-7.753-0.208-6.173-3.381c3.893-1.716,9.266,1.019,12.455,3.028c4.947,3.144,7.426,7.988,8.914,13.498
			c2.685,10.042,3.696,23.014,2.515,33.325c-1.165,10.257-7.355,19.885-10.259,29.747c-1.225,4.224-2.36,9.155-1.831,13.592
			c0.423,3.927,2.009,7.908,2.374,11.892c-0.415-0.398-0.78-0.773-1.056-1.136c-2.516-3.227-7.511,0.703-4.99,3.934
			c2.315,2.981,6.168,4.907,9.185,7.074c1.816,1.318,3.635,2.714,5.122,4.414c1.27,1.438,1.404,1.689,0.071,2.629
			c-0.076,0.058-0.109,0.092-0.151,0.139c-1.626-0.6-3.266-1.175-4.907-1.768c-7.13-2.532-11.287-7.581-16.753-12.48
			c-5.644-5.063-13.354-9.518-20.35-12.905c3.485,1.187,7.758,3.62,9.083,4.05C127.499,109.042,131.501,107.378,134.721,104.303z
			 M16.328,264.009c-1.092-7.953-3.448-17.029-1.897-25.003c1.477-7.605,3.675-13.489,0.42-21.05
			c-1.368-3.123-3.47-5.915-4.954-8.951c-2.462-4.98-0.753-8.174,1.727-12.538c3.657-6.454,3.893-11.414,3.896-18.694
			c-0.036-9.086,2.356-14.768,9.169-20.875c5.95-5.35,9.812-11.551,13.585-18.555c6.96-12.925,16.003-22.531,29.522-28.636
			c12.148-5.474,26.341-6.61,39.018-2.342c7.503,2.525,14.084,7.604,20.624,11.966c5.572,3.7,9.304,9.777,15.289,12.898
			c8.898,4.607,23.499,5.43,26.052,17.072c0.109,0.521,0.327,0.96,0.575,1.299c2.774,8.254,6.009,16.313,3.571,25.165
			c-2.279,8.324-3.551,16.957-6.985,24.929c-3.369,7.885-10.778,12.662-17.815,16.955c-6.809,4.205-13.088,8.266-18.559,14.148
			c-5.829,6.287-10.477,13.452-17.222,18.874c-3.716,2.965-8.977,3.605-13.394,4.987c-4.436,1.362-7.716,4.164-11.031,7.255
			c-7.382,6.896-15.095,9.594-25.113,10.425c-8.617,0.71-17.293,0.276-25.525,3.162c-6.574,2.317-12.465,6.19-19.391,7.483
			C4.673,286.499,16.994,268.997,16.328,264.009z"/>
		<path d="M38.382,282.578c5.72-2.432,12.067-2.578,18.212-2.882c11.905-0.555,23.192-1.756,32.646-9.701
			c1.923-1.611,3.658-3.4,5.52-5.076c3.392-3.101,7.764-4.129,12.08-5.333c5.694-1.58,9.783-4.189,14.005-8.254
			c8.154-7.903,13.828-17.605,23.362-24.142c8.698-5.94,17.999-10.232,24.565-18.798c6.657-8.691,7.518-20.688,10.368-30.904
			c3.369-11.973-0.95-21.958-4.517-33.298c-0.147-0.49-0.375-0.888-0.636-1.215c-2.308-5.086-6.31-8.322-11.074-10.79
			c1.92-3.585,0.223-7.842-3.009-11.034c-1.482-1.466-3.424-2.791-5.408-4.1c0.732-5.234-1.163-10.171-2.148-15.29
			c-1.352-7.104,2.019-15.079,4.466-21.571c2.095-5.488,4.778-10.715,6.267-16.404c1.649-6.174,1.588-12.092,1.168-18.399
			c-0.76-11.749-0.777-25.235-8.275-35.016c-4.643-6.03-15.796-12.42-23.881-9.744c-1.11-0.097-2.326,0.271-3.227,1.347
			c-3.412,3.984-4.48,8.903-0.843,13.113c1.659,1.879,4.275,2.137,6.601,2.174c4.03,0.088,6.784,2.707,9.083,5.777
			c3.668,4.907,4.415,12.025,3.932,17.934c-0.715,8.838-2.146,18.289-5.325,26.569c-2.221,5.841-4.653,11.362-6.449,17.382
			c-1.494,5-3.551,13.758-9.374,15.376c-1.801,0.495-5.386-1.891-6.966-2.631c-2.229-1.04-4.592-2.188-7.044-2.599
			c-3.744-0.623-6.672,0.415-8.706,3.124c-23.317-5.88-50.022,5.334-64.488,23.838c-5.063,6.521-8.273,14.332-12.685,21.269
			c-4.038,6.405-11.718,9.852-15.115,16.673c-2.88,5.821-3.298,12.214-3.146,18.618c0.068,3.347,0.233,6.444-0.98,9.582
			c-1.474,3.858-4.174,7.098-5.524,11.032c-2.087,6.063,1.398,12.087,4.417,17.128c2.353,3.958,3.701,7.477,3.156,12.191
			c-0.458,4.113-2.242,7.932-2.677,12.069c-0.426,3.942,0.443,8.232,0.932,12.126c0.443,3.792,2.163,9.067,1.12,12.827
			c-0.932,3.334-3.263,6.049-4.061,9.542c-0.8,3.432-0.757,6.704,0.494,9.97c3.147,7.865,14.956,4.922,20.66,2.906
			C30.15,286.467,34.193,284.309,38.382,282.578z M142.019,90.688c2.082-6.134,3.941-12.055,6.48-18.066
			c3.272-7.753,4.511-14.983,5.405-23.301c0.699-6.713,1.988-12.283,0.727-19.084c-1.082-5.789-3.751-11.28-7.961-15.403
			c-2.011-1.941-4.296-3.293-6.821-4.412c-1.983-0.885-6.662-0.071-5.864-2.336c3.657-1.35,8.609,1.226,11.502,3.083
			c4.818,3.041,7.247,7.721,8.684,13.067c2.71,10.013,3.688,22.909,2.53,33.177c-1.165,10.174-7.348,19.766-10.213,29.559
			c-1.271,4.332-2.421,9.397-1.897,13.937c0.382,3.293,1.547,6.616,2.135,9.935c-3.093-3.199-8.582,1.312-5.656,5.065
			c2.374,3.03,6.226,4.976,9.294,7.182c1.763,1.294,3.546,2.639,5,4.316c0.228,0.253,0.813,0.874,0.886,1.166
			c0.023,0.101,0.059,0.125,0.066,0.148c-0.05-0.015-0.258,0.042-0.666,0.337c-1.492-0.549-3.021-1.116-4.526-1.646
			c-7.083-2.518-11.191-7.51-16.619-12.408c-2.911-2.62-6.398-5.074-10.041-7.309c3.858,0.603,7.475-1.008,10.393-3.832
			C138.492,100.384,140.41,95.38,142.019,90.688z M16.713,263.009c-1.077-7.93-3.45-16.941-1.895-24.847
			c1.467-7.723,3.678-13.699,0.347-21.381c-1.358-3.12-3.45-5.919-4.957-8.957c-2.374-4.795-0.659-7.819,1.729-12.021
			c3.686-6.51,3.947-11.548,3.932-18.866c-0.015-8.949,2.236-14.463,8.931-20.465c6.059-5.427,9.968-11.717,13.79-18.822
			c6.889-12.748,15.844-22.242,29.201-28.273c11.981-5.411,25.999-6.561,38.512-2.338c7.482,2.511,14.015,7.536,20.505,11.883
			c5.606,3.719,9.377,9.828,15.426,12.953c8.594,4.474,23.2,5.33,25.662,16.594c0.109,0.572,0.335,1.052,0.613,1.438
			c2.726,8.077,5.951,16.039,3.584,24.695c-2.267,8.323-3.554,16.969-6.974,24.937c-3.344,7.757-10.734,12.486-17.647,16.704
			c-6.864,4.217-13.148,8.313-18.653,14.266c-5.797,6.221-10.428,13.377-17.133,18.743c-3.65,2.92-8.888,3.545-13.258,4.899
			c-4.471,1.39-7.83,4.21-11.181,7.342c-7.295,6.823-14.876,9.482-24.805,10.308c-8.658,0.723-17.354,0.289-25.665,3.213
			c-6.541,2.275-12.374,6.115-19.231,7.422C5.595,284.712,17.343,267.818,16.713,263.009z"/>
	</g>
</g>
</svg>
